<svg xmlns="http://www.w3.org/2000/svg" viewBox="0 0 100 100" width="100" height="100">
  <!-- 背景圆形 -->
  <circle cx="50" cy="50" r="45" fill="url(#gradient)" stroke="#007BFF" stroke-width="2"/>
  
  <!-- 渐变背景 -->
  <defs>
    <linearGradient id="gradient" x1="0%" y1="0%" x2="100%" y2="100%">
      <stop offset="0%" style="stop-color:#007BFF;stop-opacity:1"/>
      <stop offset="100%" style="stop-color:#00BFFF;stop-opacity:1"/>
    </linearGradient>
  </defs>
  
  <!-- 相机主体 -->
  <rect x="30" y="30" width="40" height="30" rx="5" ry="5" fill="#FFFFFF" stroke="#000000" stroke-width="1"/>
  <circle cx="50" cy="45" r="10" fill="#000000"/>
  <circle cx="50" cy="45" r="7" fill="#FFFFFF"/>
  
  <!-- 偏振光效果（波浪线） -->
  <path d="M20 60 Q30 55 40 60 T60 60 T80 60" stroke="#FFFFFF" stroke-width="2" fill="none"/>
  <path d="M20 65 Q30 70 40 65 T60 65 T80 65" stroke="#FFFFFF" stroke-width="2" fill="none"/>
  
  <!-- 数据处理元素（网格） -->
  <rect x="35" y="65" width="30" height="20" fill="none" stroke="#FFFFFF" stroke-width="1"/>
  <line x1="35" y1="70" x2="65" y2="70" stroke="#FFFFFF" stroke-width="1"/>
  <line x1="35" y1="75" x2="65" y2="75" stroke="#FFFFFF" stroke-width="1"/>
  <line x1="40" y1="65" x2="40" y2="85" stroke="#FFFFFF" stroke-width="1"/>
  <line x1="50" y1="65" x2="50" y2="85" stroke="#FFFFFF" stroke-width="1"/>
  <line x1="60" y1="65" x2="60" y2="85" stroke="#FFFFFF" stroke-width="1"/>
</svg>
